# xmcd CD database file
#
# Track frame offsets:
#	150
#	13075
#	25388
#	39625
#	53950
#	69050
#	82913
#	95900
#	109075
#	122413
#	134588
#	148113
#	161275
#	174538
#	188350
#	201963
#	214863
#	227275
#
# Disc length: 3202 seconds
#
# Revision: 0
# Processed by: cddbd v1.5.2PL0 Copyright (c) Steve Scherf et al.
# Submitted via: CDex 1.70beta2
#
DISCID=f00c8012
DTITLE=Blind John Davis - First recording sessions
DYEAR=1938
DGENRE=Jazz
TTITLE0=Blind John Davis - Jersey Cow Blues
TTITLE1=Blind John Davis - Booze Drinking Benny
TTITLE2=Ruby Smith - Dream Man Blues
TTITLE3=Ruby Smith - Selfish Blues
TTITLE4=Ruby Smith - 'Lectric Chair Blues
TTITLE5=Ruby Smith - Hard Up Blues
TTITLE6=Ruby Smith - Flyin' Mosquito Blues
TTITLE7=Ruby Smith -  Draggin' My Heart Around
TTITLE8=Blind John Davis - Alley Woman Blues
TTITLE9=Blind John Davis - Got The Blues So Bad
TTITLE10=St. Louis Red Mike Bailey - Red Mike Blues
TTITLE11=St. Louis Red Mike Bailey - Hell Ain't But A Mile And A Quarter
TTITLE12=St. Louis Red Mike Bailey - Wash My Hands Nice And Clean
TTITLE13=St. Louis Red Mike Bailey - Chimney Higher
TTITLE14=St. Louis Red Mike Bailey - Gamblin' Man Blues
TTITLE15=St. Louis Red Mike Bailey - Just Around The Corner
TTITLE16=Blind John Davis - I Love My Josephine
TTITLE17=Blind John Davis - Anna Lou Breakdown
EXTD=YEAR: 1938
EXTT0=
EXTT1=
EXTT2=
EXTT3=
EXTT4=
EXTT5=
EXTT6=
EXTT7=
EXTT8=
EXTT9=
EXTT10=
EXTT11=
EXTT12=
EXTT13=
EXTT14=
EXTT15=
EXTT16=
EXTT17=
PLAYORDER=
